<?xml version="1.0" encoding="utf-8"?>
<!-- Generator: Adobe Illustrator 22.1.0, SVG Export Plug-In . SVG Version: 6.00 Build 0)  -->
<svg version="1.1" id="Layer_1" xmlns="http://www.w3.org/2000/svg" xmlns:xlink="http://www.w3.org/1999/xlink" x="0px" y="0px"
	 viewBox="0 0 144 144" style="enable-background:new 0 0 144 144;" xml:space="preserve">
<style type="text/css">
	.st0{fill:#FFFFFF;}
</style>
<rect width="144" height="144"/>
<path class="st0" d="M0,0v144h144V0H0z M137.2,138H6.8V7.7h130.3V138z"/>
<path class="st0" d="M113,44.6c0,0-0.2-4.6-0.2-5.1c0-0.4,0.4-0.5,0.9-0.4c0.4,0.1,4.7,0.9,4.7,0.9c0,0-0.3-0.9-0.6-1.6
	c-0.2-0.7,0.2-0.8,0.2-0.9c0.2-0.2,4.8-4.2,4.8-4.2L122,33c-0.5-0.2-0.4-0.6-0.4-0.9c0.1-0.2,0.9-2.9,0.9-2.9c0-0.1-2,0.4-2.5,0.5
	c-0.3,0.1-0.5-0.1-0.6-0.4c-0.1-0.3-0.5-1.4-0.5-1.4c-0.1-0.1-2.5,2.6-2.6,2.7c-0.4,0.4-0.9,0.1-0.7-0.5c0-0.4,1.2-5.8,1.2-5.8
	c-0.1,0-1.4,0.8-1.7,1.1c-0.4,0.2-0.7,0.2-0.9-0.2c-0.3-0.4-1.9-3.6-1.9-3.6c0,0-1.6,3.2-1.9,3.6c-0.2,0.4-0.5,0.5-0.9,0.2
	c-0.4-0.3-1.7-1.1-1.7-1.1c0,0,1.2,5.4,1.2,5.8c0.1,0.6-0.3,0.9-0.7,0.5c-0.1-0.1-2.6-2.8-2.6-2.7c0-0.1-0.4,1.1-0.5,1.4
	c-0.2,0.2-0.3,0.4-0.6,0.4c-0.5-0.1-2.6-0.5-2.6-0.5c0-0.1,0.8,2.6,0.9,2.9c0.1,0.3,0.2,0.7-0.2,0.9l-0.7,0.4c0,0,4.6,4,4.7,4.2
	c0.2,0.1,0.5,0.2,0.2,0.9c-0.2,0.7-0.5,1.6-0.5,1.6c0,0,4.3-0.8,4.7-0.9c0.4-0.2,0.8,0,0.9,0.4c0,0.5-0.2,5.1-0.2,5.1H113z"/>
<path class="st0" d="M85.4,116.9l-3.7-1.6l-0.2,0.5c-1,2.6-2.8,3.8-5.6,3.8c-5.7,0-6.4-5.3-6.4-7.6c0-4.6,2.4-7.4,6.3-7.4
	c2.1,0,4.7,0.7,5.6,3.8l0.1,0.5l3.7-1.5l-0.2-0.4c-1.6-3.9-4.9-6.1-9.2-6.1c-7.6,0-10.3,5.8-10.3,11.3c0,3.2,0.9,5.9,2.5,7.9
	c1.8,2.2,4.5,3.4,7.7,3.4c4.3,0,7.6-2.2,9.3-6.1L85.4,116.9z"/>
<path class="st0" d="M94.4,101.2h-6.2v22h6.1c7.2,0,11.3-4,11.3-10.8C105.7,105.2,101.7,101.2,94.4,101.2z M101.7,112.2
	c0,6-4.2,7.3-7.6,7.3h-1.8v-14.6h2.1C99.4,104.9,101.7,107.1,101.7,112.2z"/>
<path class="st0" d="M115.2,119.8c-2.4,0-4-1.3-4.3-3.5l-0.1-0.6l-3.9,1l0.1,0.4c0.7,4.3,4.6,6.3,8.1,6.3c4.3,0,7.4-2.7,7.4-6.7
	c0-4.1-3.3-5.5-6.2-6.8c-2.1-0.9-3.9-1.7-3.9-3.3c0-1.5,1.3-2.2,2.6-2.2c1.4,0,2.7,0.8,3.3,2.1l0.2,0.5l3.2-2.1l-0.2-0.4
	c-1.4-2.4-3.6-3.7-6.5-3.7c-3.8,0-6.6,2.5-6.6,6c0,3.9,3.2,5.2,5.9,6.4c2.3,1,4.2,1.8,4.2,3.7C118.7,118.7,117.4,119.8,115.2,119.8z
	"/>
</svg>
