<?xml version="1.0" encoding="utf-8"?>
<!-- Generator: Adobe Illustrator 22.1.0, SVG Export Plug-In . SVG Version: 6.00 Build 0)  -->
<svg version="1.1" id="Layer_1" xmlns="http://www.w3.org/2000/svg" xmlns:xlink="http://www.w3.org/1999/xlink" x="0px" y="0px"
	 viewBox="0 0 122 121.4" style="enable-background:new 0 0 122 121.4;" xml:space="preserve">
<title>printer</title>
<path d="M111.8,28.7H10.2C4.6,28.7,0,33.3,0,38.9v47.9h22.2V74.5h77.6v12.3H122V38.9C122,33.3,117.4,28.7,111.8,28.7z M89.2,50.5
	c-2.2,0-3.9-1.7-3.9-3.9s1.7-3.9,3.9-3.9c2.2,0,3.9,1.7,3.9,3.9C93,48.7,91.3,50.4,89.2,50.5z M102.9,50.5c-2.2,0-3.9-1.7-3.9-3.9
	s1.7-3.9,3.9-3.9c2.2,0,3.9,1.7,3.9,3.9S105.1,50.5,102.9,50.5z"/>
<polyline points="86.6,23.1 92.9,23.1 92.9,0 29.1,0 29.1,23.1 35.4,23.1 "/>
<path d="M33.7,81v36.3h55.5V81H33.7z M47.3,91.6h12.6c1.2,0,2.2,1,2.2,2.2s-1,2.2-2.2,2.2H47.3c-1.2,0-2.2-1-2.2-2.2
	S46.1,91.6,47.3,91.6z M74.7,106.5H47.3c-1.2,0-2.2-1-2.2-2.2s1-2.2,2.2-2.2h27.4c1.2,0,2.2,1,2.2,2.2
	C76.9,105.5,75.9,106.5,74.7,106.5z"/>
<polygon points="86.6,115.1 35.4,115.1 35.4,81 29.1,81 29.1,121.4 92.9,121.4 92.9,81 86.6,81 "/>
</svg>
