<svg id="Layer_1" data-name="Layer 1" xmlns="http://www.w3.org/2000/svg" viewBox="0 0 122 121.4"><title>printer</title><path d="M114.8,32H13.2A10.24,10.24,0,0,0,3,42.2V90.1H25.2V77.8h77.6V90.1H125V42.2A10.24,10.24,0,0,0,114.8,32ZM92.2,53.8a3.9,3.9,0,1,1,3.9-3.9A4,4,0,0,1,92.2,53.8Zm13.7,0a3.9,3.9,0,1,1,3.9-3.9A3.9,3.9,0,0,1,105.9,53.8Z" transform="translate(-3 -3.3)"/><polygon points="29.1 0 29.1 23.1 35.4 23.1 35.4 6.3 86.6 6.3 86.6 23.1 92.9 23.1 92.9 0 29.1 0"/><path d="M77.7,105.4H50.3a2.2,2.2,0,0,0,0,4.4H77.7a2.22,2.22,0,0,0,2.2-2.2A2.29,2.29,0,0,0,77.7,105.4Z" transform="translate(-3 -3.3)"/><path d="M62.9,94.9H50.3a2.2,2.2,0,0,0,0,4.4H62.9a2.2,2.2,0,1,0,0-4.4Z" transform="translate(-3 -3.3)"/><polygon points="86.6 115.1 35.4 115.1 35.4 81 29.1 81 29.1 121.4 92.9 121.4 92.9 81 86.6 81 86.6 115.1"/></svg>